<?xml version="1.0" encoding="UTF-8" standalone="no"?>
<!-- Created with Inkscape (http://www.inkscape.org/) -->

<svg
   version="1.1"
   id="svg2"
   width="512"
   height="512"
   viewBox="0 0 512 512"
   sodipodi:docname="dummy-audio.svg"
   inkscape:version="1.2.2 (732a01da63, 2022-12-09)"
   inkscape:export-filename="dummy-audio.png"
   inkscape:export-xdpi="96"
   inkscape:export-ydpi="96"
   xmlns:inkscape="http://www.inkscape.org/namespaces/inkscape"
   xmlns:sodipodi="http://sodipodi.sourceforge.net/DTD/sodipodi-0.dtd"
   xmlns="http://www.w3.org/2000/svg"
   xmlns:svg="http://www.w3.org/2000/svg">
  <defs
     id="defs6">
    <inkscape:perspective
       sodipodi:type="inkscape:persp3d"
       inkscape:vp_x="-26.668833 : 260.69471 : 1"
       inkscape:vp_y="0 : 1000 : 0"
       inkscape:vp_z="485.33117 : 260.69471 : 1"
       inkscape:persp3d-origin="229.33117 : 175.36138 : 1"
       id="perspective2439" />
    <inkscape:perspective
       sodipodi:type="inkscape:persp3d"
       inkscape:vp_x="-46.185791 : 267.49718 : 1"
       inkscape:vp_y="0 : 1000 : 0"
       inkscape:vp_z="465.81421 : 267.49718 : 1"
       inkscape:persp3d-origin="209.81421 : 182.16385 : 1"
       id="perspective2437" />
    <inkscape:perspective
       sodipodi:type="inkscape:persp3d"
       inkscape:vp_x="-19.87227 : 231.2112 : 1"
       inkscape:vp_y="0 : 1000 : 0"
       inkscape:vp_z="492.12773 : 231.2112 : 1"
       inkscape:persp3d-origin="236.12773 : 145.87787 : 1"
       id="perspective2435" />
    <inkscape:perspective
       sodipodi:type="inkscape:persp3d"
       inkscape:vp_x="-373.50888 : 423.82444 : 1"
       inkscape:vp_y="0 : 6411.3023 : 0"
       inkscape:vp_z="1302.9069 : 705.20931 : 1"
       inkscape:persp3d-origin="1503.0512 : -896.07299 : 1"
       id="perspective2349" />
  </defs>
  <sodipodi:namedview
     id="namedview4"
     pagecolor="#505050"
     bordercolor="#ffffff"
     borderopacity="1"
     inkscape:showpageshadow="0"
     inkscape:pageopacity="0"
     inkscape:pagecheckerboard="1"
     inkscape:deskcolor="#505050"
     showgrid="false"
     inkscape:zoom="1.1697645"
     inkscape:cx="116.69015"
     inkscape:cy="66.680086"
     inkscape:window-width="1920"
     inkscape:window-height="1027"
     inkscape:window-x="-8"
     inkscape:window-y="-8"
     inkscape:window-maximized="1"
     inkscape:current-layer="g8" />
  <g
     inkscape:groupmode="layer"
     inkscape:label="Image"
     id="g8">
    <rect
       style="fill:none;fill-opacity:1;stroke:#ffffff;stroke-width:6.489;stroke-linecap:round;stroke-linejoin:round;stroke-dasharray:6.489,19.46702325;stroke-dashoffset:188.18120922;paint-order:normal;stroke-miterlimit:5"
       id="rect2347"
       width="505.61075"
       height="505.61075"
       x="3.1946301"
       y="3.1946301" />
    <path
       style="fill:#ffffff;fill-opacity:1;stroke:#ffffff;stroke-width:6.489;stroke-linecap:round;stroke-linejoin:round;stroke-miterlimit:5;stroke-dasharray:25.956, 25.956;stroke-dashoffset:0;stroke-opacity:1;paint-order:normal"
       d="m 40.221062,174.31202 434.065038,0"
       id="path5142"
       sodipodi:nodetypes="cc" />
    <text
       xml:space="preserve"
       style="font-size:53.3333px;font-family:Consolas;-inkscape-font-specification:Consolas;text-align:center;text-anchor:middle;fill:#ffffff;stroke-width:6.489;stroke-linecap:round;stroke-linejoin:round;stroke-miterlimit:5;stroke-dasharray:25.956, 25.956"
       x="283.23792"
       y="79.098747"
       id="text552"><tspan
         sodipodi:role="line"
         id="tspan550"
         x="283.23792"
         y="79.098747">Audio file</tspan></text>
    <g
       id="g11488"
       transform="translate(259.02649,154.52048)">
      <path
         id="path5345"
         style="fill:#ffffff;fill-opacity:1;stroke:none;stroke-width:3.43789;stroke-linecap:round;stroke-linejoin:round;stroke-miterlimit:5;stroke-dasharray:none;stroke-dashoffset:0;stroke-opacity:1"
         d="m -170.50261,-112.53109 -25.13467,2.85621 8.56864,32.559901 7.90695,29.18135 a 19.536297,15.693089 0 0 0 -10.21407,-2.32096 19.536297,15.693089 0 0 0 -19.53576,15.69302 19.536297,15.693089 0 0 0 19.53576,15.69302 19.536297,15.693089 0 0 0 19.53667,-15.69302 19.536297,15.693089 0 0 0 -1.72757,-6.44886 l -1.97304,-7.36155 -14.10019,-55.020161 14.10019,1.14249 11.03448,3.900871 6.28367,16.09261 c 0,0 2.28497,9.42471 2.85622,12.49074 0.57123,3.06604 5.71242,3.4e-4 5.71242,-3.0657 0,-3.06603 -2.28497,-13.42373 -2.28497,-13.42373 0,0 -6.2837,-18.850121 -9.13988,-22.277541 -2.85619,-3.42742 -11.42485,-3.99869 -11.42485,-3.99869 z" />
      <path
         id="path5345-0"
         style="fill:#ffffff;fill-opacity:1;stroke:none;stroke-width:1.68896;stroke-linecap:round;stroke-linejoin:round;stroke-miterlimit:5;stroke-dasharray:none;stroke-dashoffset:0;stroke-opacity:1"
         d="m -219.7781,-97.887099 -10.52646,6.60591 10.71398,12.60165 9.70298,11.24573 a 7.7096599,9.5977411 64.37264 0 0 -5.01748,1.14227 7.7096599,9.5977411 64.37264 0 0 -5.3188,11.10226 7.7096599,9.5977411 64.37264 0 0 11.98788,2.80014 7.7096599,9.5977411 64.37264 0 0 5.3192,-11.10247 7.7096599,9.5977411 64.37264 0 0 -2.13552,-2.48943 l -2.43817,-2.84154 -17.93664,-21.37501 6.48842,-2.49002 5.71658,-0.61678 6.20279,5.79301 c 0,0 3.01474,3.68913 3.91926,4.92585 0.90451,1.23671 2.53038,-1.21366 1.87889,-2.57176 -0.65149,-1.35809 -3.86447,-5.4605 -3.86447,-5.4605 0,0 -6.78873,-7.01443 -8.78215,-7.92571 -1.99342,-0.91127 -5.91029,0.6564 -5.91029,0.6564 z" />
    </g>
  </g>
</svg>
