<?xml version="1.0" encoding="UTF-8" standalone="no"?>
<svg
   inkscape:export-ydpi="25.4"
   inkscape:export-xdpi="25.4"
   inkscape:export-filename="/home/beans/Pictures/Projects/VectorGraphics/ProjectNsfwbox2/nsfwbox192.png"
   sodipodi:docname="NsfwBoxIcon.svg"
   inkscape:version="1.1.2 (0a00cf5339, 2022-02-04)"
   id="svg880"
   version="1.1"
   viewBox="0 0 512 512"
   height="512mm"
   width="512mm"
   xmlns:inkscape="http://www.inkscape.org/namespaces/inkscape"
   xmlns:sodipodi="http://sodipodi.sourceforge.net/DTD/sodipodi-0.dtd"
   xmlns:xlink="http://www.w3.org/1999/xlink"
   xmlns="http://www.w3.org/2000/svg"
   xmlns:svg="http://www.w3.org/2000/svg"
   xmlns:rdf="http://www.w3.org/1999/02/22-rdf-syntax-ns#"
   xmlns:cc="http://creativecommons.org/ns#"
   xmlns:dc="http://purl.org/dc/elements/1.1/">
  <defs
     id="defs874">
    <linearGradient
       id="linearGradient1577"
       inkscape:collect="always">
      <stop
         id="stop1573"
         offset="0"
         style="stop-color:#0080f1;stop-opacity:1" />
      <stop
         id="stop1575"
         offset="1"
         style="stop-color:#5100a1;stop-opacity:1" />
    </linearGradient>
    <linearGradient
       gradientUnits="userSpaceOnUse"
       y2="505.54459"
       x2="513.8905"
       y1="6.4554119"
       x1="1.8904893"
       id="linearGradient1579"
       xlink:href="#linearGradient1577"
       inkscape:collect="always" />
  </defs>
  <sodipodi:namedview
     inkscape:window-maximized="0"
     inkscape:window-y="240"
     inkscape:window-x="-100"
     inkscape:window-height="658"
     inkscape:window-width="1513"
     inkscape:snap-object-midpoints="true"
     inkscape:snap-center="true"
     showborder="true"
     borderlayer="false"
     inkscape:showpageshadow="false"
     inkscape:pagecheckerboard="true"
     showgrid="false"
     inkscape:document-rotation="0"
     inkscape:current-layer="layer1"
     inkscape:document-units="mm"
     inkscape:cy="959.93623"
     inkscape:cx="-3345.7972"
     inkscape:zoom="0.053649397"
     inkscape:pageshadow="2"
     inkscape:pageopacity="0"
     borderopacity="1"
     bordercolor="#000000"
     pagecolor="#ffffff"
     id="base" />
  <metadata
     id="metadata877">
    <rdf:RDF>
      <cc:Work
         rdf:about="">
        <dc:format>image/svg+xml</dc:format>
        <dc:type
           rdf:resource="http://purl.org/dc/dcmitype/StillImage" />
        <dc:title />
      </cc:Work>
    </rdf:RDF>
  </metadata>
  <g
     id="layer1"
     inkscape:groupmode="layer"
     inkscape:label="Слой 1">
    <circle
       r="256"
       cy="256"
       cx="256"
       id="path1571"
       style="fill:url(#linearGradient1579);fill-opacity:1;stroke:none;stroke-width:0.597;stroke-linecap:round;stroke-linejoin:round;stroke-miterlimit:4;stroke-dasharray:none;stroke-opacity:1" />
    <path
       d="M 117.49375,186.74702 256,48.240777 394.50623,186.74699 m 0,0 2e-5,138.50623 M 256,48.240777 V 186.74702 m -138.50625,0 v 138.50621 m 0,0 L 256,186.74699 394.50623,325.25322 256,463.75946 Z"
       style="fill:none;fill-opacity:1;stroke:#ffffff;stroke-width:16.99099898;stroke-linecap:round;stroke-linejoin:round;stroke-miterlimit:4;stroke-dasharray:135.92799187,33.98199797,16.99099898,33.98199797;stroke-dashoffset:132.52979207;stroke-opacity:1"
       id="path923"
       inkscape:export-filename="C:\Users\TransQueen\Desktop\path923.png"
       inkscape:export-xdpi="7"
       inkscape:export-ydpi="7" />
    <path
       d="m 255.22182,393.84903 c -1.8932,0 -3.7184,-0.68585 -5.14085,-1.93175 -5.37214,-4.69746 -10.55155,-9.11187 -15.12118,-13.00579 l -0.0233,-0.0203 c -13.39744,-11.41695 -24.96661,-21.27656 -33.01621,-30.98906 -8.99825,-10.85795 -13.18944,-21.15282 -13.18944,-32.39935 0,-10.92693 3.74682,-21.00773 10.54952,-28.3867 6.88388,-7.46624 16.32954,-11.57831 26.60004,-11.57831 7.67626,0 14.70624,2.42686 20.89411,7.21259 3.12285,2.4157 5.95351,5.37218 8.44733,8.8207 2.49482,-3.44852 5.32446,-6.405 8.44833,-8.8207 6.18788,-4.78573 13.21784,-7.21259 20.8941,-7.21259 10.26949,0 19.71618,4.11207 26.60005,11.57831 6.8027,7.37897 10.54851,17.45977 10.54851,28.3867 0,11.24653 -4.19019,21.5414 -13.18843,32.39835 -8.04961,9.7135 -19.61775,19.5721 -33.01315,30.98806 -4.57776,3.90002 -9.76526,8.32152 -15.1496,13.03014 -1.42141,1.24388 -3.24764,1.92973 -5.13981,1.92973 z m -29.34144,-110.5214 c -8.06888,0 -15.48135,3.22025 -20.8738,9.06824 -5.4726,5.93627 -8.4869,14.14212 -8.4869,23.10688 0,9.45885 3.51549,17.91835 11.39771,27.42897 7.61842,9.19304 18.95016,18.84973 32.07062,30.03132 l 0.0243,0.0203 c 4.58687,3.90915 9.78655,8.34079 15.19828,13.07276 5.4442,-4.74109 10.65199,-9.17985 15.24801,-13.09509 13.11943,-11.18159 24.45019,-20.83626 32.0686,-30.0293 7.8812,-9.51061 11.39668,-17.9701 11.39668,-27.42896 0,-8.96476 -3.01429,-17.17062 -8.4869,-23.10687 -5.39143,-5.84799 -12.8049,-9.06825 -20.87279,-9.06825 -5.9109,0 -11.33784,1.87898 -16.12965,5.5842 -4.27034,3.30346 -7.24507,7.47943 -8.98911,10.4014 -0.89689,1.50257 -2.47557,2.39945 -4.22367,2.39945 -1.74811,0 -3.32677,-0.89688 -4.22366,-2.39945 -1.74303,-2.92197 -4.71776,-7.09794 -8.98911,-10.4014 -4.79182,-3.70521 -10.21878,-5.5842 -16.12865,-5.5842 z m 0,0"
       style="fill:#ffffff;fill-opacity:1;stroke:#ffffff;stroke-width:6.56;stroke-miterlimit:4;stroke-dasharray:none;stroke-opacity:1"
       id="path984"
       inkscape:export-filename="C:\Users\TransQueen\Desktop\path923.png"
       inkscape:export-xdpi="7"
       inkscape:export-ydpi="7" />
  </g>
</svg>
